<?xml version="1.0" encoding="utf-8"?>
<svg viewBox="0 0 100 100" xmlns="http://www.w3.org/2000/svg">
  <defs/>
  <path d="M 50 0 C 22.383 0 0 22.387 0 50.003 C 0 77.62 22.383 100 50 100 C 77.613 100 100 77.62 100 50.003 C 100 22.387 77.613 0 50 0 Z M 50 93.75 C 25.838 93.75 6.25 74.165 6.25 50.003 C 6.25 25.839 25.838 6.25 50 6.25 C 74.165 6.25 93.75 25.839 93.75 50.003 C 93.75 74.165 74.165 93.75 50 93.75 Z" p-id="998" fill="#515151"/>
  <path d="M 67.861 32.139 C 66.635 30.906 64.642 30.906 63.416 32.139 L 49.983 45.565 L 36.742 32.324 C 35.52 31.102 33.543 31.102 32.321 32.324 C 31.102 33.543 31.102 35.523 32.321 36.742 L 45.565 49.986 L 32.23 63.315 C 31.001 64.547 31.001 66.541 32.23 67.773 C 33.462 68.999 35.456 68.999 36.688 67.773 L 50.017 54.438 L 63.254 67.679 C 64.48 68.898 66.46 68.898 67.672 67.679 C 68.898 66.46 68.898 64.48 67.672 63.261 L 54.435 50.017 L 67.861 36.591 C 69.1 35.358 69.1 33.365 67.861 32.139 Z" p-id="999" fill="#515151"/>
</svg>